<svg width="858" height="862" viewBox="0 0 858 862" fill="none" xmlns="http://www.w3.org/2000/svg">
<g filter="url(#filter0_d_49_8)">
<path d="M4 150C4 67.1573 71.1573 0 154 0H704C786.843 0 854 67.1573 854 150V700C854 782.843 786.843 850 704 850H154C71.1573 850 4 782.843 4 700V150Z" fill="white"/>
<path d="M4 150C4 67.1573 71.1573 0 154 0H704C786.843 0 854 67.1573 854 150V700C854 782.843 786.843 850 704 850H154C71.1573 850 4 782.843 4 700V150Z" fill="white"/>
</g>
<path d="M254 450H204V500H254V450Z" fill="#0855F4"/>
<path d="M254 155C254 152.239 251.761 150 249 150H209C206.239 150 204 152.239 204 155V400H254V155Z" fill="#0855F4"/>
<path d="M254 550H204V600H254V550Z" fill="#0855F4"/>
<path d="M254 650H204V695C204 697.761 206.239 700 209 700H249C251.761 700 254 697.761 254 695V650Z" fill="#0855F4"/>
<path d="M354 155C354 152.239 351.761 150 349 150H309C306.239 150 304 152.239 304 155V400H354V155Z" fill="#4495FA"/>
<path d="M354 650H304V695C304 697.761 306.239 700 309 700H349C351.761 700 354 697.761 354 695V650Z" fill="#4495FA"/>
<path d="M354 450H304V500H354V450Z" fill="#4495FA"/>
<path d="M354 550H304V600H354V550Z" fill="#4495FA"/>
<path d="M454 650H404V695C404 697.761 406.239 700 409 700H449C451.761 700 454 697.761 454 695V650Z" fill="#25CDE8"/>
<path d="M454 550H404V600H454V550Z" fill="#25CDE8"/>
<path d="M454 450H404V500H454V450Z" fill="#25CDE8"/>
<path d="M454 155C454 152.239 451.761 150 449 150H409C406.239 150 404 152.239 404 155V400H454V155Z" fill="#25CDE8"/>
<path d="M204 400L159 400C156.239 400 154 402.239 154 405V445C154 447.761 156.239 450 159 450L204 450L204 400Z" fill="#25CDE8"/>
<path d="M304 400L254 400L254 450H304L304 400Z" fill="#25CDE8"/>
<path d="M704 405C704 402.239 701.761 400 699 400L454 400L454 450L699 450C701.761 450 704 447.761 704 445V405Z" fill="#25CDE8"/>
<path d="M404 400H354V450H404L404 400Z" fill="#25CDE8"/>
<path d="M254 400H204L204 450H254L254 400Z" fill="#003CD2"/>
<path d="M354 400H304L304 450H354V400Z" fill="#0078E3"/>
<path d="M454 400H404L404 450H454L454 400Z" fill="#00A4D2"/>
<path d="M704 505C704 502.239 701.761 500 699 500L454 500V550L699 550C701.761 550 704 547.761 704 545V505Z" fill="#4495FA"/>
<path d="M204 500L159 500C156.239 500 154 502.239 154 505V545C154 547.761 156.239 550 159 550L204 550V500Z" fill="#4495FA"/>
<path d="M404 500H354V550H404V500Z" fill="#4495FA"/>
<path d="M304 500H254V550H304V500Z" fill="#4495FA"/>
<path d="M254 500H204V550H254V500Z" fill="#003CD2"/>
<path d="M354 500H304V550H354V500Z" fill="#0855F4"/>
<path d="M454 500H404V550H454V500Z" fill="#0078E3"/>
<path d="M404 600H354V650H404V600Z" fill="#0855F4"/>
<path d="M704 605C704 602.239 701.761 600 699 600L454 600V650L699 650C701.761 650 704 647.762 704 645V605Z" fill="#0855F4"/>
<path d="M304 600H254V650H304V600Z" fill="#0855F4"/>
<path d="M204 600L159 600C156.239 600 154 602.239 154 605V645C154 647.762 156.239 650 159 650L204 650V600Z" fill="#0855F4"/>
<path d="M254 600H204V650H254V600Z" fill="#0000D1"/>
<path d="M354 600H304V650H354V600Z" fill="#003CD2"/>
<path d="M454 600H404V650H454V600Z" fill="#003CD2"/>
<defs>
<filter id="filter0_d_49_8" x="0" y="0" width="858" height="862" filterUnits="userSpaceOnUse" color-interpolation-filters="sRGB">
<feFlood flood-opacity="0" result="BackgroundImageFix"/>
<feColorMatrix in="SourceAlpha" type="matrix" values="0 0 0 0 0 0 0 0 0 0 0 0 0 0 0 0 0 0 127 0" result="hardAlpha"/>
<feOffset dy="8"/>
<feGaussianBlur stdDeviation="2"/>
<feComposite in2="hardAlpha" operator="out"/>
<feColorMatrix type="matrix" values="0 0 0 0 0 0 0 0 0 0 0 0 0 0 0 0 0 0 0.25 0"/>
<feBlend mode="normal" in2="BackgroundImageFix" result="effect1_dropShadow_49_8"/>
<feBlend mode="normal" in="SourceGraphic" in2="effect1_dropShadow_49_8" result="shape"/>
</filter>
</defs>
</svg>
